<svg version="1.1" viewBox="0 0 1000 1000" class="tea w-48 h-48 stroke-current text-palette-gray" fill="none" xmlns="http://www.w3.org/2000/svg">
<path d="M27.1,17H3c-1.1,0-2,0.9-2,2c0.1,3.5,0.4,10.7,1.5,15c1.6,6.7,4.7,10.9,5.9,12.4C8.8,46.8,9.3,47,9.8,47H20
	c0.6,0,1.2-0.3,1.5-0.8c1.1-1.6,3.7-5.8,5.9-12.2c1.5-4.2,1.6-11.6,1.5-15.1C29,17.8,28.2,17,27.1,17z" stroke="currentColor" stroke-width="1.5"/>
<path d="M29,23.5c0,0,5.5-3,6.5,2c0.6,3-1.3,6-3.5,7.4c-2.5,1.5-4,1.1-4,1.1" stroke="currentColor" stroke-width="1.5"/>
<path id="teabag" fill="currentColor" fill-rule="evenodd" clip-rule="evenodd" d="M18.3,25h-2.5v-8h-1.5v8h-2.5c-1.2,0-2.1,1-2.1,2.1v6.8c0,1.2,1,2.1,2.1,2.1h6.6c1.2,0,2.1-1,2.1-2.1v-6.8
	C20.4,25.9,19.5,25,18.3,25z M18.9,33.9c0,0.4-0.3,0.6-0.6,0.6h-6.6c-0.4,0-0.6-0.3-0.6-0.6v-6.8c0-0.3,0.3-0.6,0.6-0.6h6.6
	c0.4,0,0.6,0.3,0.6,0.6V33.9z"/>
<path id="steamL" class="st1" d="M17,1c0,0,0,3.5-3,5.5S11,12,11,12" stroke-width="1.5" stroke-linecap="round"
          stroke-linejoin="round" stroke="currentColor"/>
<path id="steamR" class="st1" d="M21,6c0,0,0,2.2-2,3.5c-2,1.3-2,3.5-2,3.5" stroke-width="1.5" stroke-linecap="round"
          stroke-linejoin="round" stroke="currentColor"/>

</svg>
